<?xml version="1.0" encoding="iso-8859-1"?>
<!-- Generator: Adobe Illustrator 19.0.0, SVG Export Plug-In . SVG Version: 6.00 Build 0)  -->
<svg version="1.1" id="Layer_1" xmlns="http://www.w3.org/2000/svg" xmlns:xlink="http://www.w3.org/1999/xlink" x="0px" y="0px"
	 viewBox="0 0 435.379 435.379" style="enable-background:new 0 0 435.379 435.379;" xml:space="preserve">
<g>
	<path style="fill:#FFDE55;" d="M324.273,205.554H111.106v-98.97C111.106,47.813,158.919,0,217.689,0
		c58.771,0,106.584,47.813,106.584,106.584V205.554z M140.471,176.189h154.438v-69.605c0-42.579-34.64-77.219-77.219-77.219
		c-42.578,0-77.219,34.64-77.219,77.219L140.471,176.189L140.471,176.189z"/>
	<path style="fill:#F75959;" d="M428.453,179.67c-0.424,12.311-1.283,24.699-2.545,37.141c-1.523,15.161-3.633,30.419-6.264,45.754
		c-2.97,17.38-6.603,34.869-10.79,52.444c-3.643,15.292-7.71,30.659-12.137,46.092c-3.589,12.508-7.407,25.047-11.431,37.63
		c-3.316,10.419-6.775,20.86-10.354,31.323c-65.843,4.458-131.685,6.123-197.528,4.971c-38.99-0.674-77.969-2.339-116.959-4.971
		c-3.579-10.474-7.037-20.914-10.354-31.323c-4.024-12.583-7.842-25.134-11.42-37.63c-4.425-15.433-8.494-30.8-12.148-46.092
		c-4.187-17.575-7.82-35.063-10.79-52.444c-2.621-15.335-4.731-30.593-6.264-45.754c-1.251-12.441-2.121-24.819-2.545-37.141
		c-0.327-9.354-0.414-18.675-0.229-27.951c17.718-1.61,35.434-3.024,53.151-4.22c122.941-8.363,245.893-6.961,368.834,4.22
		C428.866,160.995,428.79,170.316,428.453,179.67"/>
	<path style="fill:#FFDE55;" d="M396.718,361.101c-3.589,12.507-7.407,25.047-11.431,37.63c-111.728,2.067-223.467,2.067-335.194,0
		c-4.024-12.583-7.842-25.134-11.42-37.63C158.024,362.656,277.365,362.656,396.718,361.101"/>
	<path style="fill:#FFDE55;" d="M419.644,262.565c-2.97,17.38-6.603,34.869-10.79,52.444c-127.443,0.642-254.887,0.642-382.33,0
		c-4.187-17.575-7.82-35.063-10.79-52.444C150.368,261.837,285.011,261.837,419.644,262.565"/>
	<path style="fill:#FFDE55;" d="M428.453,179.67c-0.424,12.311-1.283,24.699-2.545,37.141c-138.81-2.1-277.628-2.1-416.438,0
		c-1.251-12.441-2.121-24.819-2.545-37.141C147.432,176.407,287.947,176.407,428.453,179.67"/>
	<path style="fill:#E35B5B;" d="M50.092,398.731c3.316,10.409,6.775,20.85,10.354,31.323c38.99,2.631,77.969,4.296,116.959,4.971
		c-10.187-10.923-19.531-22.691-28.09-35.002C116.24,399.774,83.166,399.343,50.092,398.731 M26.524,315.009
		c3.654,15.292,7.722,30.659,12.148,46.092l0,0c29.124,0.379,58.24,0.667,87.363,0.861c-8.281-15.354-15.58-31.058-22.004-46.642
		C78.198,315.243,52.356,315.14,26.524,315.009 M72.444,216.003c-20.995,0.221-41.979,0.491-62.973,0.808
		c1.533,15.161,3.643,30.419,6.264,45.754l0,0c23.099-0.125,46.193-0.229,69.292-0.311
		C79.933,245.772,75.788,230.131,72.444,216.003 M59.848,147.499L59.848,147.499c-17.718,1.196-35.434,2.61-53.151,4.22
		c-0.063,3.188-0.095,6.382-0.095,9.582c-0.001,6.106,0.11,12.231,0.324,18.37l0,0c19.227-0.447,38.45-0.832,57.677-1.156
		C61.115,159.258,59.848,147.499,59.848,147.499"/>
	<path style="fill:#E9CD57;" d="M38.672,361.101c3.579,12.497,7.397,25.047,11.42,37.63l0,0c33.074,0.612,66.148,1.042,99.223,1.292
		c-8.514-12.246-16.248-25.022-23.281-38.062C96.911,361.768,67.796,361.48,38.672,361.101"/>
	<path style="fill:#E9CD57;" d="M85.027,262.255c-23.099,0.082-46.193,0.186-69.292,0.311c2.97,17.38,6.603,34.869,10.79,52.444l0,0
		c25.832,0.13,51.674,0.234,77.506,0.311C96.571,297.224,90.291,279.289,85.027,262.255"/>
	<path style="fill:#E9CD57;" d="M64.603,178.514c-19.227,0.324-38.45,0.709-57.677,1.156c0.424,12.321,1.293,24.699,2.545,37.141
		l0,0c20.994-0.317,41.979-0.587,62.973-0.808C69.067,201.736,66.505,189.01,64.603,178.514"/>
</g>
<g>
</g>
<g>
</g>
<g>
</g>
<g>
</g>
<g>
</g>
<g>
</g>
<g>
</g>
<g>
</g>
<g>
</g>
<g>
</g>
<g>
</g>
<g>
</g>
<g>
</g>
<g>
</g>
<g>
</g>
</svg>
