<?xml version="1.0" encoding="iso-8859-1"?>
<!-- Generator: Adobe Illustrator 19.0.0, SVG Export Plug-In . SVG Version: 6.00 Build 0)  -->
<svg version="1.1" id="Layer_1" xmlns="http://www.w3.org/2000/svg" xmlns:xlink="http://www.w3.org/1999/xlink" x="0px" y="0px"
	 viewBox="0 0 512 512" style="enable-background:new 0 0 512 512;" xml:space="preserve">
<path style="fill:#FFB14E;" d="M315.865,0c-50.386,0-91.377,40.991-91.377,91.377v87.841h23.704V91.377
	c0-37.314,30.359-67.673,67.673-67.673s67.673,30.359,67.673,67.673v87.841h23.704V91.377C407.241,40.991,366.251,0,315.865,0z"/>
<g>
	<path style="fill:#FF755C;" d="M200.322,0c-50.385,0-91.375,40.991-91.375,91.377v87.841h23.704V91.377
		c0-37.314,30.357-67.673,67.673-67.673s67.673,30.359,67.673,67.673v87.841H291.7V91.377C291.7,40.991,250.708,0,200.322,0z"/>
	<polygon style="fill:#FF755C;" points="351.561,155.508 387.117,333.754 351.561,512 49.079,512 49.079,155.508 	"/>
</g>
<polygon style="fill:#FFD86C;" points="462.921,155.508 462.921,512 395.39,485.843 407.241,155.508 "/>
<polygon style="fill:#FFB14E;" points="407.241,155.508 407.241,485.843 351.561,512 351.561,155.508 "/>
<polygon style="fill:#FF755C;" points="462.921,512 351.561,512 407.241,462.139 "/>
<g>
</g>
<g>
</g>
<g>
</g>
<g>
</g>
<g>
</g>
<g>
</g>
<g>
</g>
<g>
</g>
<g>
</g>
<g>
</g>
<g>
</g>
<g>
</g>
<g>
</g>
<g>
</g>
<g>
</g>
</svg>
