<?xml version="1.0" encoding="utf-8"?>
<!DOCTYPE svg PUBLIC "-//W3C//DTD SVG 1.1//EN" "http://www.w3.org/Graphics/SVG/1.1/DTD/svg11.dtd">
<svg version="1.1" id="Layer_7" xmlns="http://www.w3.org/2000/svg" xmlns:xlink="http://www.w3.org/1999/xlink" x="0px" y="0px"
	 viewBox="-179.5604 -439.2281 1181.1207 1685.6714" enable-background="new -179.5604 -439.2281 1181.1207 1685.6714"
	 xml:space="preserve">
<g>
	<path fill="#58595B" d="M619.6818-4.4076c-2.2959,5.1422-7.1514,8.0089-10.7911,6.3733
		c-3.6397-1.6381-4.7505-7.1899-2.4725-12.3372c0,0,73.1269-165.1717,20.7043-276.7408
		c-24.2264-51.5574-104.7838-91.323-191.5532-94.5506c-90.1635-3.3377-163.2188,32.5552-200.4349,98.523
		c-34.2675,60.7386-24.4414,238.1349-24.4414,238.1349c0.3123,5.6234-2.6927,10.4098-6.6779,10.6401
		c-3.9853,0.2304-7.4995-4.1823-7.8092-9.8057c0,0-10.0514-181.6886,26.2894-246.1028
		c39.9779-70.8617,117.8734-109.4396,213.6116-105.8946c91.886,3.4196,177.7417,46.6866,204.1463,102.8794
		c16.0178,34.0858,30.5024,95.4541,8.5515,194.2254c-13.0026,58.6142-29.1023,94.6529-29.1023,94.6529L619.6818-4.4076z"/>
	<polygon fill="#EF4136" points="-116.2717,-127.0111 -149.5461,940.9189 712.6199,1203.6077 763.1459,-45.8727 	"/>
	<polygon fill="#E83A0C" points="712.6199,1203.6077 971.5461,1057.3026 971.5461,-97.0641 828.2101,-76.5875 763.1459,-45.8727 	
		"/>
	<polygon fill="#F95753" points="763.1459,-45.8727 828.2101,-76.5875 828.2101,972.8367 712.6199,1203.6077 	"/>
	<polygon fill="#F98585" points="712.6199,1203.6077 828.2101,972.8367 971.5461,1057.3026 	"/>
	<polygon fill="#939598" points="763.1459,-45.8727 828.2101,-76.5875 971.5461,-97.0641 60.3387,-153.3746 21.9451,-140.5768 
		-116.2717,-127.0111 	"/>
	<circle fill="#EAEEEF" cx="87.4702" cy="-14.6715" r="36.3229"/>
	<circle fill="#939598" cx="87.4702" cy="-14.6715" r="24.7997"/>
	<circle fill="#EAEEEF" cx="494.9027" cy="21.6489" r="36.3229"/>
	<circle fill="#939598" cx="494.9027" cy="21.6488" r="24.7997"/>
	<path fill="#6D6E71" d="M503.1189,20.3947c-2.2959,5.1422-7.1515,8.0089-10.7911,6.3708
		c-3.6397-1.6382-4.7505-7.1898-2.4726-12.3372c0,0,73.127-165.1717,20.7043-276.7408
		c-24.2263-51.5575-104.7863-91.323-191.5532-94.5506c-90.1302-3.3505-163.2188,32.5552-200.4349,98.523
		C84.3167-197.6194,94.1301-20.2027,94.1301-20.2027c0.3097,5.6234-2.6953,10.4098-6.6779,10.6401
		c-3.9853,0.2304-7.4995-4.1823-7.8092-9.8057c0,0-10.0514-181.6886,26.2893-246.1028
		c39.9779-70.8592,117.8375-109.4473,213.6116-105.8946c91.886,3.4196,177.7417,46.6866,204.1463,102.8794
		c16.0178,34.0858,30.5024,95.4515,8.5515,194.2254c-13.0026,58.6142-29.1023,94.6529-29.1023,94.6529L503.1189,20.3947z"/>
</g>
</svg>
