<?xml version="1.0" encoding="iso-8859-1"?>
<!-- Generator: Adobe Illustrator 19.0.0, SVG Export Plug-In . SVG Version: 6.00 Build 0)  -->
<svg version="1.1" id="Layer_1" xmlns="http://www.w3.org/2000/svg" xmlns:xlink="http://www.w3.org/1999/xlink" x="0px" y="0px"
	 viewBox="0 0 459.52 459.52" style="enable-background:new 0 0 459.52 459.52;" xml:space="preserve">
<g id="XMLID_108_">
	<polygon id="XMLID_109_" style="fill:#F67A21;" points="177.26,25.005 177.26,99.52 142.26,99.52 142.26,35.005 	"/>
	<polygon id="XMLID_110_" style="fill:#FB992D;" points="229.76,0 239.76,17.5 229.76,35 142.26,35 177.26,0 	"/>
	<polygon id="XMLID_138_" style="fill:#FFB739;" points="229.76,89.52 239.76,219.52 229.76,349.52 144.76,359.52 59.76,349.52 
		59.76,89.52 	"/>
	<polygon id="XMLID_169_" style="fill:#BB4919;" points="317.26,35.005 317.26,99.52 282.26,99.52 282.26,25.005 	"/>
	<polygon id="XMLID_197_" style="fill:#F67A21;" points="317.26,35 229.76,35 229.76,0 282.26,0 	"/>
	<polygon id="XMLID_221_" style="fill:#FFB739;" points="229.76,404.52 239.76,433.761 229.76,459.52 59.76,459.52 135.02,404.52 
		182.39,394.52 	"/>
	<polygon id="XMLID_222_" style="fill:#FB992D;" points="229.76,349.52 229.76,404.52 135.02,404.52 59.76,349.52 	"/>
	<polygon id="XMLID_223_" style="fill:#F67A21;" points="59.76,349.52 155.023,404.52 59.76,459.52 	"/>
	<polygon id="XMLID_224_" style="fill:#FB992D;" points="399.76,89.52 399.76,349.52 314.76,359.52 229.76,349.52 229.76,89.52 	"/>
	<polygon id="XMLID_225_" style="fill:#FB992D;" points="399.76,459.52 229.76,459.52 229.76,404.52 277.13,394.52 324.5,404.52 	
		"/>
	<polygon id="XMLID_226_" style="fill:#F67A21;" points="399.76,349.52 324.5,404.52 229.76,404.52 229.76,349.52 	"/>
	<polygon id="XMLID_227_" style="fill:#BB4919;" points="399.76,459.52 304.497,404.52 399.76,349.52 	"/>
</g>
<g>
</g>
<g>
</g>
<g>
</g>
<g>
</g>
<g>
</g>
<g>
</g>
<g>
</g>
<g>
</g>
<g>
</g>
<g>
</g>
<g>
</g>
<g>
</g>
<g>
</g>
<g>
</g>
<g>
</g>
</svg>
